REM DIRINDEX 1\2,1\3,1\4
REM DIRNAME folder01,folder02,folder03,folder04
TITLE ""
FILE "043 043_TOEFL_3900.mp3" MP3
  TRACK 01 AUDIO
    TITLE "2:cjc151_1859"
    INDEX 01 00:00:00
  TRACK 02 AUDIO
    TITLE "0:"
    INDEX 01 00:01:24
  TRACK 03 AUDIO
    TITLE "3:cjc151_1860"
    INDEX 01 00:03:04
  TRACK 04 AUDIO
    TITLE "0:"
    INDEX 01 00:06:14
  TRACK 05 AUDIO
    TITLE "2:cjc151_1861"
    INDEX 01 00:07:66
  TRACK 06 AUDIO
    TITLE "0:"
    INDEX 01 00:09:04
  TRACK 07 AUDIO
    TITLE "3:cjc151_1862"
    INDEX 01 00:10:59
  TRACK 08 AUDIO
    TITLE "0:"
    INDEX 01 00:14:09
  TRACK 09 AUDIO
    TITLE "2:cjc151_1863"
    INDEX 01 00:15:64
  TRACK 10 AUDIO
    TITLE "0:"
    INDEX 01 00:17:06
  TRACK 11 AUDIO
    TITLE "3:cjc151_1864"
    INDEX 01 00:18:60
  TRACK 12 AUDIO
    TITLE "0:"
    INDEX 01 00:22:05
  TRACK 13 AUDIO
    TITLE "2:cjc151_1865"
    INDEX 01 00:23:57
  TRACK 14 AUDIO
    TITLE "0:"
    INDEX 01 00:24:67
  TRACK 15 AUDIO
    TITLE "3:cjc151_1866"
    INDEX 01 00:26:40
  TRACK 16 AUDIO
    TITLE "0:"
    INDEX 01 00:30:71
  TRACK 17 AUDIO
    TITLE "2:cjc151_1867"
    INDEX 01 00:32:50
  TRACK 18 AUDIO
    TITLE "0:"
    INDEX 01 00:34:06
  TRACK 19 AUDIO
    TITLE "3:cjc151_1868"
    INDEX 01 00:35:63
  TRACK 20 AUDIO
    TITLE "0:"
    INDEX 01 00:39:70
  TRACK 21 AUDIO
    TITLE "2:cjc151_1869"
    INDEX 01 00:41:47
  TRACK 22 AUDIO
    TITLE "0:"
    INDEX 01 00:42:55
  TRACK 23 AUDIO
    TITLE "3:cjc151_1870"
    INDEX 01 00:44:34
  TRACK 24 AUDIO
    TITLE "0:"
    INDEX 01 00:48:30
  TRACK 25 AUDIO
    TITLE "2:cjc151_1871"
    INDEX 01 00:50:07
  TRACK 26 AUDIO
    TITLE "0:"
    INDEX 01 00:51:22
  TRACK 27 AUDIO
    TITLE "3:cjc151_1872"
    INDEX 01 00:53:04
  TRACK 28 AUDIO
    TITLE "0:"
    INDEX 01 00:57:39
  TRACK 29 AUDIO
    TITLE "2:cjc151_1873"
    INDEX 01 00:59:18
  TRACK 30 AUDIO
    TITLE "0:"
    INDEX 01 01:00:35
  TRACK 31 AUDIO
    TITLE "3:cjc151_1874"
    INDEX 01 01:02:16
  TRACK 32 AUDIO
    TITLE "0:"
    INDEX 01 01:05:73
  TRACK 33 AUDIO
    TITLE "2:cjc151_1875"
    INDEX 01 01:07:51
  TRACK 34 AUDIO
    TITLE "0:"
    INDEX 01 01:09:05
  TRACK 35 AUDIO
    TITLE "3:cjc151_1876"
    INDEX 01 01:10:57
  TRACK 36 AUDIO
    TITLE "0:"
    INDEX 01 01:15:01
  TRACK 37 AUDIO
    TITLE "2:cjc151_1877"
    INDEX 01 01:16:56
  TRACK 38 AUDIO
    TITLE "0:"
    INDEX 01 01:17:59
  TRACK 39 AUDIO
    TITLE "3:cjc151_1878"
    INDEX 01 01:19:38
  TRACK 40 AUDIO
    TITLE "0:"
    INDEX 01 01:22:46
  TRACK 41 AUDIO
    TITLE "2:cjc151_1879"
    INDEX 01 01:24:26
  TRACK 42 AUDIO
    TITLE "0:"
    INDEX 01 01:25:62
  TRACK 43 AUDIO
    TITLE "3:cjc151_1880"
    INDEX 01 01:27:40
  TRACK 44 AUDIO
    TITLE "0:"
    INDEX 01 01:32:06
  TRACK 45 AUDIO
    TITLE "2:cjc151_1881"
    INDEX 01 01:33:60
  TRACK 46 AUDIO
    TITLE "0:"
    INDEX 01 01:35:00
  TRACK 47 AUDIO
    TITLE "3:cjc151_1882"
    INDEX 01 01:36:52
  TRACK 48 AUDIO
    TITLE "0:"
    INDEX 01 01:40:72
  TRACK 49 AUDIO
    TITLE "2:cjc151_1883"
    INDEX 01 01:42:51
  TRACK 50 AUDIO
    TITLE "0:"
    INDEX 01 01:43:60
  TRACK 51 AUDIO
    TITLE "3:cjc151_1884"
    INDEX 01 01:45:38
  TRACK 52 AUDIO
    TITLE "0:"
    INDEX 01 01:49:39
  TRACK 53 AUDIO
    TITLE "2:cjc151_1885"
    INDEX 01 01:51:19
  TRACK 54 AUDIO
    TITLE "0:"
    INDEX 01 01:52:24
  TRACK 55 AUDIO
    TITLE "3:cjc151_1886"
    INDEX 01 01:54:03
  TRACK 56 AUDIO
    TITLE "0:"
    INDEX 01 01:57:35
  TRACK 57 AUDIO
    TITLE "2:cjc151_1887"
    INDEX 01 01:59:16
  TRACK 58 AUDIO
    TITLE "0:"
    INDEX 01 02:00:31
  TRACK 59 AUDIO
    TITLE "3:cjc151_1888"
    INDEX 01 02:02:11
  TRACK 60 AUDIO
    TITLE "0:"
    INDEX 01 02:05:64
  TRACK 61 AUDIO
    TITLE "2:cjc151_1889"
    INDEX 01 02:07:41
  TRACK 62 AUDIO
    TITLE "0:"
    INDEX 01 02:08:56
  TRACK 63 AUDIO
    TITLE "3:cjc151_1890"
    INDEX 01 02:10:38
  TRACK 64 AUDIO
    TITLE "0:"
    INDEX 01 02:14:41
  TRACK 65 AUDIO
    TITLE "2:cjc151_1891"
    INDEX 01 02:16:21
  TRACK 66 AUDIO
    TITLE "0:"
    INDEX 01 02:17:28
  TRACK 67 AUDIO
    TITLE "3:cjc151_1892"
    INDEX 01 02:19:07
  TRACK 68 AUDIO
    TITLE "0:"
    INDEX 01 02:23:72
  TRACK 69 AUDIO
    TITLE "2:cjc151_1893"
    INDEX 01 02:25:51
  TRACK 70 AUDIO
    TITLE "0:"
    INDEX 01 02:26:46
  TRACK 71 AUDIO
    TITLE "3:cjc151_1894"
    INDEX 01 02:28:18
  TRACK 72 AUDIO
    TITLE "0:"
    INDEX 01 02:31:40
  TRACK 73 AUDIO
    TITLE "2:cjc151_1895"
    INDEX 01 02:33:17
  TRACK 74 AUDIO
    TITLE "0:"
    INDEX 01 02:34:15
  TRACK 75 AUDIO
    TITLE "3:cjc151_1896"
    INDEX 01 02:35:69
  TRACK 76 AUDIO
    TITLE "0:"
    INDEX 01 02:39:67
  TRACK 77 AUDIO
    TITLE "2:cjc151_1897"
    INDEX 01 02:41:46
  TRACK 78 AUDIO
    TITLE "0:"
    INDEX 01 02:42:53
  TRACK 79 AUDIO
    TITLE "3:cjc151_1898"
    INDEX 01 02:44:25
  TRACK 80 AUDIO
    TITLE "0:"
    INDEX 01 02:48:50
  TRACK 81 AUDIO
    TITLE "2:cjc151_1899"
    INDEX 01 02:50:27
  TRACK 82 AUDIO
    TITLE "0:"
    INDEX 01 02:51:27
  TRACK 83 AUDIO
    TITLE "3:cjc151_1900"
    INDEX 01 02:53:06
  TRACK 84 AUDIO
    TITLE "0:"
    INDEX 01 02:56:65
  TRACK 85 AUDIO
    TITLE "2:cjc151_1901"
    INDEX 01 02:58:42
  TRACK 86 AUDIO
    TITLE "0:"
    INDEX 01 02:59:69
  TRACK 87 AUDIO
    TITLE "3:cjc151_1902"
    INDEX 01 03:01:49
  TRACK 88 AUDIO
    TITLE "0:"
    INDEX 01 03:05:27
